<svg id="Your_Design" data-name="Your Design" xmlns="http://www.w3.org/2000/svg" viewBox="0 0 44.72 15.71"><defs><style>.cls-1{fill:#fff;}.cls-2{fill:none;stroke:#fff;stroke-miterlimit:10;}</style></defs><title>OutsidrLogo</title><path class="cls-1" d="M29.39,11V5.74a6,6,0,0,1-1.56.16c-.24,0-.92-.18-1.19-.19H26.4c0,.26-.15.39-.3.39A.44.44,0,0,1,25.89,6a3.39,3.39,0,0,0-1.51-.33c-1.19,0-2.26.66-2.26,1.73S22.8,9,23.52,9.63s1.11,1,1.11,1.68a.63.63,0,0,1-.7.66c-.87,0-1.44-.91-1.58-2.18h-.24c0,.4,0,1,0,1.62a.77.77,0,0,1-.37.12c-.27,0-.36-.12-.36-.43v-5h1.18V5.89H21.38V3.55a2.33,2.33,0,0,1-2.17.9V5.89h-.91c-.69,0-1.17,0-2,0-.24,0-.49,0-.74,0v.25c.5,0,.67.33.67,1.05v3.6a.87.87,0,0,1-.87.86c-.42,0-.59-.25-.59-.76V5.74a11,11,0,0,1-2.09.16c-.24,0-.49,0-.74,0a14.6,14.6,0,0,0-2.37-.09,8.15,8.15,0,0,1,.25,2c0,2.48-.77,4.22-2,4.22S5.84,10.43,5.84,7.88s.77-4.22,2-4.22c.73,0,1.37.68,1.73,1.85a9.38,9.38,0,0,1,2.36.14,4.23,4.23,0,0,0-4-2.21A4.3,4.3,0,0,0,3.32,7.92c0,2.75,1.81,4.35,4.52,4.35a4.3,4.3,0,0,0,4.54-4.49,4.86,4.86,0,0,0-.28-1.64c.41.05.56.37.56,1v3.06A2.35,2.35,0,0,0,13,11.79a1.63,1.63,0,0,0,1.35.48,2,2,0,0,0,1.91-.9v.87a10.46,10.46,0,0,1,2.09-.17c.24,0,.49,0,.74,0v-.25c-.5,0-.67-.33-.67-1.05l-.11-4.67h.9v4.07c0,.83.06,1.32.41,1.67a1.71,1.71,0,0,0,1.24.41,1.84,1.84,0,0,0,1.52-.7h0c.24-.27.6.26.85.39a2.34,2.34,0,0,0,1.24.3c1.33,0,2.42-.76,2.42-1.85,0-.92-.56-1.42-1.29-2s-1.44-1-1.44-1.73A.66.66,0,0,1,24.88,6c1,0,1.37,1,1.48,1.88h.24c0-.79,0-1.33,0-1.74.45,0,.62.36.62,1V11c0,.67-.18.86-.67.86v.25c.35,0,1.13,0,1.8,0s1.38,0,1.71,0v-.25C29.57,11.85,29.39,11.66,29.39,11Z"/><path class="cls-1" d="M28.24,5.62c.83,0,1.31-.35,1.31-1s-.48-1-1.31-1-1.31.35-1.31,1S27.4,5.62,28.24,5.62Z"/><path class="cls-1" d="M40.29,5.7a1.63,1.63,0,0,0-1.55.9V5.74a11,11,0,0,1-2.09.16c-.24,0-.49,0-.74,0v.25c.5,0,.67.33.67,1.05V11c0,.62-.34.88-.58.68a1.21,1.21,0,0,1-.24-.89l.06-7.23a10.92,10.92,0,0,1-2.15.2c-.24,0-.49,0-.74,0V4c.5,0,.67.28.67,1V6a2.19,2.19,0,0,0-1.25-.3c-1.61,0-2.67,1.07-2.67,3.24,0,2.36,1.07,3.33,2.45,3.33a1.49,1.49,0,0,0,1.46-.9v.85a11,11,0,0,1,2.09-.16h2.15c.77,0,1.57,0,1.94,0v-.25c-.73,0-1-.22-1-1V7.27a1.2,1.2,0,0,1,.71-1.07.88.88,0,0,1,.39-.08,1.25,1.25,0,0,0-.62,1.12c0,.52.36.86,1.07.86a1.07,1.07,0,0,0,1.1-1.18A1.07,1.07,0,0,0,40.29,5.7Zm-6.7,5.08a.87.87,0,0,1-.86.86c-.45,0-.81-.54-.81-2.66C31.92,7,32.29,6.1,33,6.1a1.1,1.1,0,0,1,.56.16Z"/><rect class="cls-2" x="0.5" y="0.5" width="43.72" height="14.71"/></svg>